<svg width="199" height="94" viewBox="0 0 199 94" fill="none" xmlns="http://www.w3.org/2000/svg">
<path d="M11.5 90.5C11.5 62.5 39 41.5 111 45.5C183 49.5 197.5 2 197.5 2" stroke="url(#paint0_linear_315_2)" stroke-width="3" stroke-linecap="round"/>
<path d="M10 14H13V94H10V14Z" fill="url(#paint1_linear_315_2)"/>
<g filter="url(#filter0_di_315_2)">
<path d="M9.89677 19.0468C14.1279 20.0925 18.0877 18.7965 18.7413 16.1521C19.3949 13.5076 16.4948 10.5161 12.2637 9.47037C8.03254 8.42461 4.07269 9.72061 3.4191 12.3651C2.7655 15.0095 5.66565 18.001 9.89677 19.0468Z" fill="white"/>
<path d="M17.784 15.9151C17.5679 16.7885 16.7681 17.5831 15.354 18.0457C13.9554 18.5033 12.0983 18.575 10.1335 18.0894C8.16868 17.6037 6.55914 16.6753 5.53456 15.6189C4.49866 14.5506 4.16126 13.4745 4.37679 12.602C4.5928 11.7286 5.3927 10.934 6.80681 10.4714C8.20541 10.0138 10.0625 9.94212 12.0273 10.4278C13.9921 10.9134 15.6016 11.8418 16.6262 12.8982C17.6621 13.9665 17.9995 15.0426 17.784 15.9151Z" stroke="#ff1493" stroke-width="1.97291"/>
</g>
<defs>
<filter id="filter0_di_315_2" x="0.367783" y="6.14876" width="19.4522" height="14.2467" filterUnits="userSpaceOnUse" color-interpolation-filters="sRGB">
<feFlood flood-opacity="0" result="BackgroundImageFix"/>
<feColorMatrix in="SourceAlpha" type="matrix" values="0 0 0 0 0 0 0 0 0 0 0 0 0 0 0 0 0 0 127 0" result="hardAlpha"/>
<feOffset dx="-0.986455" dy="-0.986455"/>
<feGaussianBlur stdDeviation="0.986455"/>
<feComposite in2="hardAlpha" operator="out"/>
<feColorMatrix type="matrix" values="0 0 0 0 0 0 0 0 0 0 0 0 0 0 0 0 0 0 0.67 0"/>
<feBlend mode="normal" in2="BackgroundImageFix" result="effect1_dropShadow_315_2"/>
<feBlend mode="normal" in="SourceGraphic" in2="effect1_dropShadow_315_2" result="shape"/>
<feColorMatrix in="SourceAlpha" type="matrix" values="0 0 0 0 0 0 0 0 0 0 0 0 0 0 0 0 0 0 127 0" result="hardAlpha"/>
<feOffset dx="-0.986455" dy="-0.986455"/>
<feGaussianBlur stdDeviation="1.97291"/>
<feComposite in2="hardAlpha" operator="arithmetic" k2="-1" k3="1"/>
<feColorMatrix type="matrix" values="0 0 0 0 0 0 0 0 0 0 0 0 0 0 0 0 0 0 0.15 0"/>
<feBlend mode="normal" in2="shape" result="effect2_innerShadow_315_2"/>
</filter>
<linearGradient id="paint0_linear_315_2" x1="-21.7867" y1="63.8607" x2="32.1603" y2="-58.4548" gradientUnits="userSpaceOnUse">
<stop offset="0" stop-color="#ff1493"/>
<stop offset="0.5" stop-color="#9d4edd"/>
<stop offset="1" stop-color="#ff66cc" stop-opacity="0.18"/>
</linearGradient>
<linearGradient id="paint1_linear_315_2" x1="11.5" y1="14" x2="11.5" y2="94" gradientUnits="userSpaceOnUse">
<stop stop-color="#ff1493"/>
<stop offset="0.5" stop-color="#9d4edd"/>
<stop offset="1" stop-color="#ff66cc"/>
</linearGradient>
</defs>
</svg>
